<?xml version="1.0" standalone="no"?><!DOCTYPE svg PUBLIC "-//W3C//DTD SVG 1.1//EN" "http://www.w3.org/Graphics/SVG/1.1/DTD/svg11.dtd"><svg t="1622904784705" class="icon" viewBox="0 0 1024 1024" version="1.1" xmlns="http://www.w3.org/2000/svg" p-id="21051" xmlns:xlink="http://www.w3.org/1999/xlink" width="200" height="200"><defs><style type="text/css"></style></defs><path d="M904.192 880.128H118.272c-67.584 0-118.272-50.688-118.272-118.272v-498.688c0-67.584 50.688-118.272 118.272-118.272h785.92c67.584 0 118.272 50.688 118.272 118.272v498.688c0 67.584-50.688 118.272-118.272 118.272z m0-667.648H118.272c-25.6 0-50.688 25.6-50.688 50.688v498.688c0 25.6 25.6 50.688 50.688 50.688h785.92c25.6 0 50.688-25.6 50.688-50.688v-498.688c0-25.088-25.6-50.688-50.688-50.688zM295.936 559.104c16.896-16.896 33.792-16.896 50.688 0s16.896 33.792 0 50.688c-33.792 33.792-101.376 93.184-135.168 126.976-8.704 8.704-16.896 16.896-25.6 16.896-8.704 0-16.896-8.704-25.6-16.896 0 0-8.704-8.704-8.704-16.896s0-16.896 8.704-25.6l135.68-135.168z m464.384 0c-16.896-16.896-33.792-16.896-50.688 0-16.896 16.896-16.896 33.792 0 50.688 42.496 33.792 101.376 93.184 135.168 126.976 8.704 8.704 16.896 8.704 25.6 8.704s16.896 0 25.6-8.704 8.704-16.896 8.704-25.6 0-16.896-8.704-25.6c-34.304-25.088-101.888-92.672-135.68-126.464z m-236.544-16.896c-42.496 0-84.48-8.704-118.272-33.792l-223.744-163.84c-16.384-12.288-20.48-35.328-8.192-52.224 11.264-15.872 33.792-19.456 49.664-8.192l232.96 165.376c42.496 33.792 110.08 33.792 160.768-8.704l193.536-156.16c14.336-11.776 35.84-9.728 47.616 4.608 11.264 13.824 9.728 34.304-4.096 45.568l-195.072 164.864c-41.984 25.6-84.48 42.496-135.168 42.496z" p-id="21052" fill="#ed4c89"></path></svg>