<?xml version="1.0" standalone="no"?><!DOCTYPE svg PUBLIC "-//W3C//DTD SVG 1.1//EN" "http://www.w3.org/Graphics/SVG/1.1/DTD/svg11.dtd"><svg t="1622027738113" class="icon" viewBox="0 0 1024 1024" version="1.1" xmlns="http://www.w3.org/2000/svg" p-id="2345" xmlns:xlink="http://www.w3.org/1999/xlink" width="200" height="200"><defs><style type="text/css"></style></defs><path d="M733.1600448 43.74978197c-87.42190252 0-168.47532207 44.00042777-222.31795078 116.36955234-53.26367571-72.36912458-134.89604823-116.36955237-222.31795076-116.36955234-157.47521513 0-285.4238274 140.10662524-285.42382745 312.05566527 0 102.47468042 45.73728675 174.84380503 82.79027857 232.7391047 107.1063044 168.47532207 376.89840087 377.4773539 388.47746084 386.16164883 11.00010694 8.68429498 23.73707287 12.73696593 36.4740388 12.73696595s25.47393185-4.05267099 36.47403879-12.73696595c11.57905991-8.68429498 280.79220342-218.26527976 388.47746086-386.16164883 37.05299181-57.89529966 82.79027853-130.26442427 82.79027849-232.7391047 0-171.94904002-127.94861229-312.05566525-285.42382736-312.05566527z" p-id="2346" fill="#d81e06"></path></svg>