<?xml version="1.0" standalone="no"?><!DOCTYPE svg PUBLIC "-//W3C//DTD SVG 1.1//EN" "http://www.w3.org/Graphics/SVG/1.1/DTD/svg11.dtd"><svg t="1622028753128" class="icon" viewBox="0 0 1024 1024" version="1.1" xmlns="http://www.w3.org/2000/svg" p-id="6751" xmlns:xlink="http://www.w3.org/1999/xlink" width="200" height="200"><defs><style type="text/css"></style></defs><path d="M512 971.513564V393.861769c0-29.009688-19.112795-52.474436-42.662542-52.474436s-42.662542 23.549747-42.662541 52.474436v577.651795c0 29.010688 19.112795 52.475436 42.662541 52.475436S512 1000.439253 512 971.513564z" fill="#d81e06" p-id="6752"></path><path d="M177.269596 16.041828c-17.235815-17.832808-49.31847-21.245772-71.759229-7.679918-22.525758 13.652853-26.791712 39.249578-9.641897 56.998388l332.768426 345.39629c20.47878 21.330771 60.837346 21.330771 81.400125 0L842.806446 65.359298c17.065817-17.747809 12.799863-43.259535-9.640896-56.912389-22.440759-13.651853-54.609413-10.23889-71.67323 7.593919L469.337458 319.202571 177.269596 16.041828z" fill="#d81e06" p-id="6753"></path><path d="M140.237994 426.712416H798.436923c30.289675 0 54.864411-19.112795 54.864411-42.662542S828.726598 341.386333 798.436923 341.386333H140.237994c-30.289675 0-54.864411 19.112795-54.864411 42.662541s24.573736 42.662542 54.864411 42.662542z m0 255.97525H798.436923c30.289675 0 54.864411-19.112795 54.864411-42.662541S828.726598 597.363583 798.436923 597.363583H140.237994c-30.289675 0-54.864411 19.112795-54.864411 42.662542s24.573736 42.662542 54.864411 42.662541z" fill="#d81e06" p-id="6754"></path></svg>