<?xml version="1.0" standalone="no"?><!DOCTYPE svg PUBLIC "-//W3C//DTD SVG 1.1//EN" "http://www.w3.org/Graphics/SVG/1.1/DTD/svg11.dtd"><svg t="1622624652088" class="icon" viewBox="0 0 1024 1024" version="1.1" xmlns="http://www.w3.org/2000/svg" p-id="13364" xmlns:xlink="http://www.w3.org/1999/xlink" width="200" height="200"><defs><style type="text/css"></style></defs><path d="M764.75392 1005.78688c-16.12416 0-34.36032-4.67712-51.35872-13.17376L512.12928 891.9744 309.69856 992.33408c-15.43424 8.3136-33.0432 12.70144-50.99904 12.70144-23.42016 0-46.54848-7.50208-65.13536-21.13024l-0.5696-0.42496c-33.77152-25.69728-50.81728-68.57984-43.42528-109.25056l0.0832-0.45312 41.40672-213.83296-156.88704-147.05152-0.45952-0.45952c-29.088-29.09056-40.67968-73.33888-29.53216-112.72576l0.41728-1.37728c13.472-41.8368 47.67488-71.15264 89.44768-76.78336l219.88608-39.936 99.30752-201.2032c18.88768-37.78176 57.73312-62.19392 98.96704-62.19392 20.89088 0 41.44384 6.05696 59.44192 17.51936 18.21056 11.59808 32.06144 27.61856 40.1408 46.40896l98.16832 199.33696 220.62336 38.70464c41.32992 6.19904 76.54144 36.98048 88.03712 76.93952 12.82688 40.24064 2.34368 83.63008-27.45728 113.43104l-0.8384 0.82048-157.60512 148.6272 39.81312 214.4704c7.32928 41.76384-9.07648 83.21024-42.8544 108.5568-17.4528 14.48448-41.00352 22.7584-64.9216 22.7584z m-13.88928-89.47456c6.8224 3.21664 11.9872 3.9296 13.41952 3.9296 4.60032 0 8.928-1.36448 11.87072-3.75168l1.16992-0.90624c8.67968-6.51008 12.77312-16.14464 10.96064-25.77024l-0.02432-0.12544-48.06272-259.22048 16.8128-16.8 174.3872-163.6032c7.20384-7.4496 9.59488-17.57184 6.3936-27.17696l-0.33792-1.02528-0.29056-1.0432c-2.29504-8.36224-10.20416-15.27168-18.80576-16.4288l-1.5232-0.2368-263.77472-45.82784-118.144-240.384-0.43008-1.00608c-3.04-7.14368-13.03296-13.18144-21.81504-13.18144-9.2864 0-18.19648 5.93408-22.6944 15.12064l-0.09984 0.19968L371.32672 357.696 106.33216 405.82656c-12.38912 1.60512-18.11712 10.39872-20.76032 17.85344-2.29504 9.42464 0.8128 21.31328 7.41504 28.2368L286.69952 632.12928l-7.83872 23.41632L233.71904 890.10048c-1.73824 8.8576 2.6944 19.42784 10.53824 25.1328l0.22912 0.16384c3.95648 2.92224 9.02016 4.52864 14.2592 4.52864 4.05248 0 7.97568-0.96512 11.3472-2.79808l1.34016-0.69888 240.84992-119.40096 238.58176 119.28448z" fill="#ed4c89" p-id="13365"></path></svg>