<?xml version="1.0" standalone="no"?><!DOCTYPE svg PUBLIC "-//W3C//DTD SVG 1.1//EN" "http://www.w3.org/Graphics/SVG/1.1/DTD/svg11.dtd"><svg t="1622624321608" class="icon" viewBox="0 0 1138 1024" version="1.1" xmlns="http://www.w3.org/2000/svg" p-id="11455" xmlns:xlink="http://www.w3.org/1999/xlink" width="222.265625" height="200"><defs><style type="text/css"></style></defs><path d="M1037.331925 69.671123a211.62959 211.62959 0 0 0-303.083603 0 212.767078 212.767078 0 0 0-36.740853 49.935711 510.959483 510.959483 0 0 0-257.52722 1.251236 217.828898 217.828898 0 0 0-36.57023-49.935711 211.060846 211.060846 0 0 0-303.083602 0l-31.849656 32.589023a223.231965 223.231965 0 0 0 0 310.136027 214.188937 214.188937 0 0 0 56.874386 41.575176 356.204279 356.204279 0 0 0-2.84372 44.47577 352.279946 352.279946 0 0 0 36.57023 156.632059 80.249759 80.249759 0 0 0-19.394165 53.234425 81.500995 81.500995 0 0 0 33.32839 63.983684 110.791304 110.791304 0 0 0 16.721069 50.731952 135.64541 135.64541 0 0 1-24.51286 84.572212 54.883782 54.883782 0 0 1-47.603861 16.266074 16.379823 16.379823 0 0 0-17.062316 12.96736 16.550446 16.550446 0 0 0 10.009892 19.223543 463.128125 463.128125 0 0 0 154.413958 30.08655 236.995566 236.995566 0 0 0 95.776466-18.142929 426.557894 426.557894 0 0 0 210.435228 49.480716 454.483218 454.483218 0 0 0 219.990125-52.210687 233.924349 233.924349 0 0 0 101.918899 21.100398 464.549984 464.549984 0 0 0 154.413958-30.086551 17.062316 17.062316 0 0 0 10.009892-19.223542 16.379823 16.379823 0 0 0-17.062316-12.96736 54.883782 54.883782 0 0 1-47.603861-16.266074 178.585572 178.585572 0 0 1-22.749754-121.36994 17.517311 17.517311 0 0 0-0.625619-7.336796 83.207227 83.207227 0 0 0 43.281408-70.41049 79.055396 79.055396 0 0 0-26.730961-58.068748 352.621193 352.621193 0 0 0 34.124631-151.627112 334.933259 334.933259 0 0 0-3.24184-47.603861 211.686464 211.686464 0 0 0 52.665682-39.243327 223.231965 223.231965 0 0 0 0-310.136026zM91.510887 389.817041a189.164208 189.164208 0 0 1 0-262.930286l31.849656-32.589023a179.21119 179.21119 0 0 1 257.129099 0 188.481715 188.481715 0 0 1 27.584077 36.115235 457.952555 457.952555 0 0 0-153.162721 88.155298l-53.120677-52.210686 2.84372-2.900594a27.527203 27.527203 0 0 0-0.796242-38.276462 26.332841 26.332841 0 0 0-37.764592 0.853116l-29.631555 31.50841a27.527203 27.527203 0 0 0 0.796241 38.447085 26.275966 26.275966 0 0 0 37.764592-1.023739l4.265579-4.379328 51.698817 51.186948A373.266595 373.266595 0 0 0 131.379831 420.529209a184.159262 184.159262 0 0 1-39.868944-30.712168z m130.811088 423.145431c0-7.507419-0.398121-14.218596-0.796242-19.223542a111.871917 111.871917 0 0 0 12.05737 1.478734 245.86797 245.86797 0 0 0 9.668646 35.205245 82.581608 82.581608 0 0 1-17.062316-13.137983 18.427301 18.427301 0 0 1-3.75371-4.322454z m-45.499509 129.27548a86.847187 86.847187 0 0 0 12.227993-11.090506 140.195361 140.195361 0 0 0 30.825917-76.211677 134.621671 134.621671 0 0 0 42.883287 18.768548 250.247298 250.247298 0 0 0 63.130568 72.059846 312.809123 312.809123 0 0 1-149.010891-3.526211z m791.805201-11.090506a86.847187 86.847187 0 0 0 12.227993 11.090506 301.88924 301.88924 0 0 1-155.835818 1.478734 223.914457 223.914457 0 0 0 89.634032-148.271525 122.848674 122.848674 0 0 0 21.669141-2.72997 197.75224 197.75224 0 0 0 32.4184 138.432255z m-58.523744-168.9738c-2.843719 0-5.687439 0-8.360534-0.398121a17.062316 17.062316 0 0 0-12.05737 3.753709 16.379823 16.379823 0 0 0-5.687439 11.374878 194.624149 194.624149 0 0 1-103.568256 156.859556 418.367983 418.367983 0 0 1-209.354615 51.186947 416.206756 416.206756 0 0 1-199.742843-48.058856 19.280417 19.280417 0 0 0-3.469338-2.104352 222.549472 222.549472 0 0 1-62.049955-55.225029h21.669141c106.810097-3.981207 157.655798-1.876855 176.310596-0.625618a43.224533 43.224533 0 0 0 39.812071 27.982198h37.992089a43.508905 43.508905 0 0 0 42.883287-43.850152 43.508905 43.508905 0 0 0-42.883287-43.850151h-37.992089a43.167659 43.167659 0 0 0-39.186452 26.33284c-20.816025-1.251236-72.685465-3.128091-177.903079 0.625619a208.558373 208.558373 0 0 1-42.257669-2.274976 228.635031 228.635031 0 0 1-20.417905-67.851142 16.379823 16.379823 0 0 0-17.062315-14.218597h-4.891198a82.46786 82.46786 0 0 1-42.712664-11.374877c-0.796241-0.625618-1.649357-1.023739-2.445598-1.649357a48.741349 48.741349 0 0 1-24.11474-40.096442 54.428787 54.428787 0 0 1 55.736898-51.812566h0.398121a1.194362 1.194362 0 0 0 0.796242 0 8.644907 8.644907 0 0 0 1.023739 0h0.625618a12.796737 12.796737 0 0 0 1.421859-0.39812c0.625618 0 1.251236-0.625618 1.819981-0.853116a228.976278 228.976278 0 0 0 94.354606-153.105847 266.115252 266.115252 0 0 0 50.220083 46.352625 426.899141 426.899141 0 0 0 287.158774 64.723051 15.811079 15.811079 0 0 0 10.806134-5.232444 135.190415 135.190415 0 0 0 15.754205-117.388732 310.420398 310.420398 0 0 1 29.631555 96.686456 17.517311 17.517311 0 0 0 5.118694 9.839268 61.139965 61.139965 0 0 0-7.564293 2.274976 16.664195 16.664195 0 0 0-9.782394 21.327895 16.095451 16.095451 0 0 0 20.816025 10.009892 71.036108 71.036108 0 0 1 48.400102 5.687438 15.811079 15.811079 0 0 0 21.839764-7.336796 17.062316 17.062316 0 0 0-7.166172-22.749754 118.1281 118.1281 0 0 0-41.859548-11.374877 251.498535 251.498535 0 0 0 73.936701-105.046991 360.24236 360.24236 0 0 1 67.794269 151.399615v4.379328c0 0.227498 0.398121 0.625618 0.39812 1.023739v0.398121a4.606825 4.606825 0 0 0 0.625618 1.023739c0 0.398121 0.625618 0.853116 0.796242 1.251236 0.398121 0.398121 0.625618 0.853116 1.023739 1.023739l1.251236 1.023739 1.251237 1.023739c0.398121 0 0.796241 0.625618 1.251236 0.853116a9.839269 9.839269 0 0 0 1.42186 0.625618l1.42186 0.625618c0.398121 0 1.023739 0 1.421859 0.398121h3.24184a62.903071 62.903071 0 0 1 69.443625 52.836304 62.561825 62.561825 0 0 1-67.339273 53.973793z m47.603862-129.047982a117.047486 117.047486 0 0 0-33.499014-9.21365 451.184504 451.184504 0 0 0-91.68151-179.381814 15.981702 15.981702 0 0 0-15.924828-5.232443 16.436698 16.436698 0 0 0-12.05737 11.886747 235.403083 235.403083 0 0 1-55.168154 101.691402 251.896655 251.896655 0 0 0-94.752727-159.248281 16.038577 16.038577 0 0 0-19.621663 1.876855 17.062316 17.062316 0 0 0-3.469338 19.84916c49.025721 100.042045 32.247777 149.977756 24.512861 164.93572a400.907546 400.907546 0 0 1-256.332858-57.841251 202.984683 202.984683 0 0 1-65.462418-71.206731 16.322949 16.322949 0 0 0-31.224038 5.687438c0 1.251236-9.384274 123.644915-81.500995 167.495067a103.682006 103.682006 0 0 0-35.944612 10.863008 319.861546 319.861546 0 0 1-30.200299-135.759159c0-199.856592 186.661735-362.346713 416.036133-362.346713s416.036133 162.490121 416.036133 362.346713a325.435236 325.435236 0 0 1-29.745303 133.370435z m88.212172-244.161739a175.002485 175.002485 0 0 1-35.944612 28.437193 374.347208 374.347208 0 0 0-97.027702-173.978746l53.68942-52.608807 4.265579 4.379327a26.275966 26.275966 0 0 0 37.593969 0.853116 27.7547 27.7547 0 0 0 0.796242-38.447085l-29.802179-31.508409a26.275966 26.275966 0 0 0-37.593969-0.853116 27.7547 27.7547 0 0 0-0.796241 38.447085l2.843719 2.900593-54.713159 53.860044c-0.625618-0.625618-1.251236-1.023739-1.81998-1.649357a457.49756 457.49756 0 0 0-157.485175-89.577158 190.244821 190.244821 0 0 1 27.185956-35.717115 179.609311 179.609311 0 0 1 256.901602 0l31.849656 32.589024a189.164208 189.164208 0 0 1 0.056874 262.702788z" fill="#ed4c89" p-id="11456"></path><path d="M571.075709 1023.738947a435.600922 435.600922 0 0 1-211.003972-48.911972 243.365497 243.365497 0 0 1-95.662717 17.574185 469.441181 469.441181 0 0 1-156.404561-30.541545 21.78289 21.78289 0 0 1-13.081109-25.309102 21.384769 21.384769 0 0 1 22.749754-17.062316 50.04946 50.04946 0 0 0 43.56578-14.616717 133.82543 133.82543 0 0 0 23.091001-79.62414 116.023747 116.023747 0 0 1-16.379823-49.53759 86.278443 86.278443 0 0 1-34.124632-66.713655 84.913458 84.913458 0 0 1 18.597924-53.916918 358.308631 358.308631 0 0 1-32.987144-197.467868 221.013864 221.013864 0 0 1-54.997531-40.949558 228.407534 228.407534 0 0 1 0-317.529696l31.906531-32.4184a216.520787 216.520787 0 0 1 310.761644 0 224.426327 224.426327 0 0 1 35.603366 47.660735 508.229513 508.229513 0 0 1 128.592987-16.322949 513.51883 513.51883 0 0 1 124.09991 15.071713 220.615743 220.615743 0 0 1 35.375868-47.433238 216.975782 216.975782 0 0 1 310.761644 0l31.906531 32.589023a228.578157 228.578157 0 0 1 0 317.757194 219.080135 219.080135 0 0 1-50.731952 38.674582 365.133558 365.133558 0 0 1 2.843719 44.760142 356.659274 356.659274 0 0 1-33.100893 150.5465 83.662222 83.662222 0 0 1 25.764097 59.376859 87.984675 87.984675 0 0 1-42.542041 72.969837 26.048469 26.048469 0 0 1 0 5.687438 175.798727 175.798727 0 0 0 21.441644 117.274984 50.276957 50.276957 0 0 0 43.56578 14.616717 21.953513 21.953513 0 0 1 9.384273 42.200795 469.441181 469.441181 0 0 1-156.404561 30.541545 237.336812 237.336812 0 0 1-101.805151-20.474779 462.957501 462.957501 0 0 1-220.786366 51.528194z m-210.435228-60.400598l2.274976 1.251236a423.486678 423.486678 0 0 0 208.160252 48.684475 451.468875 451.468875 0 0 0 217.772024-51.641943l2.274975-1.251236 2.445599 1.251236a227.497544 227.497544 0 0 0 99.757673 20.474779 455.905078 455.905078 0 0 0 152.537103-29.688429 11.374877 11.374877 0 0 0 6.768052-13.194858 11.374877 11.374877 0 0 0-11.886747-8.986153 59.26311 59.26311 0 0 1-51.755691-17.972306 183.135523 183.135523 0 0 1-24.11474-125.863016 13.934225 13.934225 0 0 0-0.398121-5.004946l-1.251236-3.981207 3.639961-2.047478a78.088532 78.088532 0 0 0 40.665186-66.088036 74.391697 74.391697 0 0 0-25.138479-54.371913l-2.843719-2.729971 1.649357-3.526212a349.663725 349.663725 0 0 0 33.726511-149.465886 330.724554 330.724554 0 0 0-3.298715-47.035117l-0.39812-3.526212 3.298714-1.649357a202.870935 202.870935 0 0 0 51.186947-38.447085 217.942647 217.942647 0 0 0 0-303.140477l-31.90653-32.589023a206.795267 206.795267 0 0 0-296.088053 0 206.909016 206.909016 0 0 0-35.603366 48.684474l-1.81998 3.526212-3.867458-1.023739a507.490146 507.490146 0 0 0-255.19537 1.251237l-3.867458 1.023739-1.819981-3.526212a212.767078 212.767078 0 0 0-35.603365-48.798223 206.56777 206.56777 0 0 0-296.486174 0l-31.906531 32.4184a217.658275 217.658275 0 0 0 0 302.912979 208.330876 208.330876 0 0 0 55.395652 40.551437l3.298715 1.649357-0.398121 3.75371a354.327424 354.327424 0 0 0-2.843719 43.907026 346.933754 346.933754 0 0 0 36.001486 154.300209l1.649357 3.128091-2.274975 2.729971a74.391697 74.391697 0 0 0 13.308606 109.540067l1.81998 1.478734v2.274975a108.573203 108.573203 0 0 0 15.924829 48.286354l0.796241 1.251236v1.649358a140.081613 140.081613 0 0 1-25.991594 87.984675 59.661231 59.661231 0 0 1-51.755692 17.972306 11.374877 11.374877 0 0 0-5.118694 22.18101 458.862546 458.862546 0 0 0 152.537103 29.68843 232.673113 232.673113 0 0 0 93.842736-17.744809z m210.435228 26.958459a425.07916 425.07916 0 0 1-202.643437-48.684475l-0.625618-0.39812a15.185461 15.185461 0 0 0-2.445599-1.478734l-0.625618-0.398121a229.715645 229.715645 0 0 1-63.301192-56.305642l-6.768052-8.758656 11.033631 0.398121h21.271021c108.345705-3.981207 159.703276-1.649357 176.651842-0.625618h3.298715l1.251236 3.128091a38.447085 38.447085 0 0 0 35.148371 24.683484h38.048964a38.674582 38.674582 0 0 0 0-77.349165h-38.333336a37.707718 37.707718 0 0 0-34.579627 23.204749l-1.42186 3.355589h-3.469337c-21.441643-1.478734-73.197335-3.128091-177.448084 0.625618a220.103874 220.103874 0 0 1-43.338282-2.274975l-2.673096-0.398121-1.42186-2.559347a238.872421 238.872421 0 0 1-20.8729-69.614249 11.374877 11.374877 0 0 0-11.374877-9.839268h-5.118695a89.292786 89.292786 0 0 1-45.499508-11.943622h-0.398121l-1.649357-1.023738H193.372912a53.632546 53.632546 0 0 1-26.560338-44.532645 59.490608 59.490608 0 0 1 60.514347-56.874386h1.023738a1.194362 1.194362 0 0 0 0.796242 0h0.398121c0.398121 0 0.796241 0 1.023739-0.39812h0.39812s0.625618 0 1.023739-0.625619A226.758177 226.758177 0 0 0 324.184 500.892717l2.274975-10.23739 6.768052 7.962414a267.309614 267.309614 0 0 0 49.253218 45.499509 422.917934 422.917934 0 0 0 284.37193 63.756187 10.806133 10.806133 0 0 0 7.336796-3.526212 129.6736 129.6736 0 0 0 13.991099-112.668159l-7.564294-37.025225 17.062316 33.442139a310.761645 310.761645 0 0 1 30.314048 98.278939 11.772998 11.772998 0 0 0 3.469337 6.711177l7.166173 6.711178-9.384274 2.274975a67.794268 67.794268 0 0 0-6.938675 2.104353 11.374877 11.374877 0 0 0-6.768052 14.616717 11.374877 11.374877 0 0 0 14.332346 6.881801 74.960441 74.960441 0 0 1 52.324435 5.687438 10.863008 10.863008 0 0 0 5.118694 1.251237 11.374877 11.374877 0 0 0 10.009892-6.256183 10.976756 10.976756 0 0 0 0.625618-8.758655 11.829872 11.829872 0 0 0-5.687438-6.711178 112.668159 112.668159 0 0 0-39.81207-10.863008l-13.081109-0.682492 10.63551-8.360535a243.194874 243.194874 0 0 0 72.401093-102.82889l3.469338-8.758655 5.687439 7.734916a366.498543 366.498543 0 0 1 68.704258 154.072712v0.398121a0.796241 0.796241 0 0 0 0 0.625618v2.047478s0 0.398121 0.39812 0.625618c0 0.398121 0.398121 0.625618 0.398121 0.853116l0.625618 0.625618 0.625619 0.625618 0.625618 0.625618s0.398121 0.398121 0.625618 0.398121a1.535608 1.535608 0 0 0 0.796242 0.398121c0.398121 0 0.625618 0 0.796241 0.398121s0.625618 0 0.796241 0.39812a1.81998 1.81998 0 0 0 1.023739 0 1.535608 1.535608 0 0 1 0.796242 0h1.421859a68.249263 68.249263 0 0 1 74.448571 58.125623 68.249263 68.249263 0 0 1-74.619194 58.125622c-3.071217 0-5.687439 0-8.986153-0.398121a10.578636 10.578636 0 0 0-8.189911 2.729971 11.374877 11.374877 0 0 0-3.867459 7.962414 200.254713 200.254713 0 0 1-103.852628 162.660744 426.046025 426.046025 0 0 1-213.05145 51.86944zM373.778464 932.739929a413.53366 413.53366 0 0 0 197.297245 47.262615 414.102404 414.102404 0 0 0 207.136514-50.163209 190.870439 190.870439 0 0 0 101.236406-153.048972 22.294759 22.294759 0 0 1 7.564294-15.071712 20.816025 20.816025 0 0 1 15.754205-5.004946c2.673096 0 5.289318 0.398121 7.962414 0.39812 35.603366 0 64.381805-21.327895 64.381805-47.660735s-28.835314-47.660735-64.381805-47.660735h-4.493077c-0.625618 0-1.251236 0-1.81998-0.398121l-1.81998-0.625618c-0.625618 0-1.251236-0.625618-1.819981-0.853116h-0.39812a8.872404 8.872404 0 0 0-1.42186-0.853116c-0.398121-0.398121-1.023739-0.625618-1.42186-1.023739a5.687439 5.687439 0 0 0-1.251236-1.023739l-1.251237-1.478734a6.369931 6.369931 0 0 1-1.023739-1.478734v-0.398121a9.156776 9.156776 0 0 1-0.796241-1.478734 0.739367 0.739367 0 0 0 0-0.39812 10.351138 10.351138 0 0 1-0.625618-1.478734v-0.625619l4.720574-2.104352-4.720574 1.876855c0-0.398121 0-0.625618-0.398121-1.023739a1.933729 1.933729 0 0 1 0-1.023739l4.891197-1.649357-4.891197 1.251236v-0.625618-1.251237a0.796241 0.796241 0 0 0 0-0.625618 346.251261 346.251261 0 0 0-61.538086-141.503472 259.404074 259.404074 0 0 1-62.959945 90.999018 124.839277 124.839277 0 0 1 32.077154 10.464887 21.100397 21.100397 0 0 1 10.63551 12.739862 22.749754 22.749754 0 0 1-1.251237 16.721069 21.441643 21.441643 0 0 1-19.223542 11.943622 21.726015 21.726015 0 0 1-9.611771-2.274976 65.348669 65.348669 0 0 0-44.362021-5.687439 21.27102 21.27102 0 0 1-27.413454-13.194857 22.010387 22.010387 0 0 1 12.853611-28.039072 1.194362 1.194362 0 0 1 0.796241 0 29.688429 29.688429 0 0 1-1.81998-6.08556 332.373911 332.373911 0 0 0-14.901089-61.481211 119.43621 119.43621 0 0 1-21.896639 85.311579 21.726015 21.726015 0 0 1-14.104847 6.881801 432.245333 432.245333 0 0 1-293.471832-67.282399 275.727023 275.727023 0 0 1-44.589518-39.81207 224.59695 224.59695 0 0 1-94.638978 146.735916h-0.398121a23.716619 23.716619 0 0 1-2.274976 1.023739h-0.39812l-1.819981 0.625618h-0.796241a4.436202 4.436202 0 0 1-1.649357 0h-1.478734a49.708213 49.708213 0 0 0-51.186948 46.636996 44.077649 44.077649 0 0 0 21.669141 35.546492 20.304156 20.304156 0 0 1 2.84372 1.649357 77.576662 77.576662 0 0 0 39.81207 10.464887 32.4184 32.4184 0 0 0 4.493076 0 21.498518 21.498518 0 0 1 22.29476 18.597924 236.369948 236.369948 0 0 0 18.825421 63.983684 229.545022 229.545022 0 0 0 38.845206 1.876855c99.58705-3.526212 151.513364-2.274975 175.002485-0.853116a48.11573 48.11573 0 0 1 42.314544-26.105343h38.048964a49.139469 49.139469 0 0 1 0 98.278939h-37.878341a48.229479 48.229479 0 0 1-43.338282-28.437193c-19.621663-1.023739-70.751736-2.900594-172.556887 0.853116h-10.63551a227.497544 227.497544 0 0 0 53.348174 44.930765 4.6637 4.6637 0 0 1 3.924332 2.72997z m519.149395 26.560338a222.720095 222.720095 0 0 1-69.329876-10.009892l-9.384274-3.128091 7.962414-6.085559A217.715149 217.715149 0 0 0 909.990175 794.819543l0.625618-4.208704h4.265579a114.090018 114.090018 0 0 0 20.645402-2.729971l6.768052-1.478734-0.625618 7.109298a193.372912 193.372912 0 0 0 30.882791 134.678546 77.861034 77.861034 0 0 0 11.374877 10.464887l9.213651 6.711178-11.033631 2.502473a398.632571 398.632571 0 0 1-89.179037 11.261128z m-56.419391-17.062315a301.434245 301.434245 0 0 0 133.541058-2.104353c-1.649357-1.478734-3.071217-3.128091-4.720574-4.606825a194.965395 194.965395 0 0 1-34.124631-135.872908c-3.867458 0.625618-7.791791 1.023739-11.374878 1.478734a230.113765 230.113765 0 0 1-83.377849 140.877854z m-571.47383 17.062315a397.438209 397.438209 0 0 1-89.577157-11.374877l-11.033631-2.502473 9.21365-6.711177a67.794268 67.794268 0 0 0 11.374877-10.464887 132.744817 132.744817 0 0 0 29.631555-73.367958l1.023739-8.133037 6.768052 4.606825a129.047982 129.047982 0 0 0 41.290805 17.972306l2.047477 0.625618 1.023739 1.876855a239.725537 239.725537 0 0 0 61.936207 70.467364l8.189911 6.48368-9.839269 2.502473a231.649374 231.649374 0 0 1-62.106829 7.848665z m-77.349164-19.394165a310.875393 310.875393 0 0 0 126.545508 3.753709 255.024746 255.024746 0 0 1-55.225029-65.007423 145.200307 145.200307 0 0 1-35.773988-14.616717 137.237893 137.237893 0 0 1-31.053415 71.263605z m64.211181-97.823944l-11.886746-7.109298a87.245308 87.245308 0 0 1-17.972306-13.991099l-4.094956-4.379328-1.251237-1.478734V813.303719a285.509417 285.509417 0 0 0-0.796241-18.825422l-0.398121-6.711178 6.313057 1.023739c4.094956 0.625618 7.791791 1.023739 11.374877 1.478734h3.867459l0.796241 3.981207a252.749771 252.749771 0 0 0 9.384274 34.465878z m-24.967855-30.712168c0.796241 0.853116 1.42186 1.649357 2.274975 2.502473s2.445599 2.502473 3.696835 3.526211q-2.445599-8.474284-4.265579-17.062315h-2.274975c0.398121 3.469338 0.568744 7.279921 0.796241 10.976756zM182.566779 642.680561l-2.274976-4.834323a324.866492 324.866492 0 0 1-30.882791-138.204758c0-202.757186 189.107333-367.920403 421.609823-367.920402s421.609823 164.935719 421.609822 367.920402a326.458975 326.458975 0 0 1-29.631555 135.872908l-2.047477 4.606826-4.493077-2.104353a110.905053 110.905053 0 0 0-32.077154-8.758655l-3.696835-0.398121-0.625618-3.753709a442.767094 442.767094 0 0 0-90.999017-177.049964 10.976756 10.976756 0 0 0-11.033631-3.526212 11.886747 11.886747 0 0 0-8.360535 8.133038 240.408029 240.408029 0 0 1-56.419391 104.137l-6.540554 6.881801-1.649357-9.668646A245.697347 245.697347 0 0 0 652.235458 398.120701a11.374877 11.374877 0 0 0-13.47923 1.251237 11.374877 11.374877 0 0 0-2.445598 13.592978c49.253218 100.952035 33.555888 152.593977 24.51286 169.940665l-1.42186 2.502473h-2.843719a406.253739 406.253739 0 0 1-259.688446-58.808115 206.795267 206.795267 0 0 1-67.453022-73.595455 11.374877 11.374877 0 0 0-12.284867-6.711178 11.033631 11.033631 0 0 0-9.213651 10.464887c0 1.251236-9.839269 126.659257-84.060342 171.81752l-1.023739 0.625618H221.810105a102.942639 102.942639 0 0 0-34.124631 10.23739z m388.50893-500.494596c-226.758177 0-411.372433 160.328894-411.372433 357.455515a312.809123 312.809123 0 0 0 27.584077 128.991108 112.611284 112.611284 0 0 1 31.90653-8.758656c68.704258-42.883287 78.088532-161.807628 78.088532-163.058864a21.612267 21.612267 0 0 1 17.574185-20.076659 21.327895 21.327895 0 0 1 23.318499 12.739863 200.425336 200.425336 0 0 0 63.813061 68.98863 395.106359 395.106359 0 0 0 250.247298 57.272507c7.166173-15.867954 19.849161-64.381805-25.991595-157.826421a22.294759 22.294759 0 0 1 4.720574-25.93472 20.8729 20.8729 0 0 1 25.764097-2.502473 252.237902 252.237902 0 0 1 94.866476 152.821475 231.194379 231.194379 0 0 0 47.660735-92.420877 21.555392 21.555392 0 0 1 15.924828-15.697331 21.27102 21.27102 0 0 1 21.043523 6.881801 461.194395 461.194395 0 0 1 92.420877 178.3012 124.725528 124.725528 0 0 1 26.560339 7.109298 313.94661 313.94661 0 0 0 26.787835-126.886755C982.220645 302.287361 797.833886 142.185965 571.075709 142.185965zM134.109802 428.377875l-5.687439-3.355589a194.112279 194.112279 0 0 1-40.892683-31.565284 194.453525 194.453525 0 0 1 0-270.49458l31.90653-32.645897a185.183001 185.183001 0 0 1 292.789339 37.195848l3.298715 5.687439-5.687439 2.104352A447.715166 447.715166 0 0 0 257.640968 222.435723l-3.469337 3.128092-60.116226-59.376859 6.313057-6.938675a22.408508 22.408508 0 0 0-0.625619-31.167164 21.043523 21.043523 0 0 0-15.356084-6.085559 22.067262 22.067262 0 0 0-15.128587 6.711177l-29.631555 31.565285a22.010387 22.010387 0 0 0-5.687438 15.69733 22.749754 22.749754 0 0 0 6.540554 15.469833A21.27102 21.27102 0 0 0 170.623158 191.097937l7.791791-8.133037 59.376859 58.296245-3.696836 3.75371a370.991619 370.991619 0 0 0-98.108315 176.651842z m-39.470824-42.428292a173.6375 173.6375 0 0 0 32.702772 26.332841 382.650868 382.650868 0 0 1 95.719592-171.021279l-44.362021-43.679528-0.625619 0.625618a30.314048 30.314048 0 0 1-22.294759 9.839269 31.735907 31.735907 0 0 1-32.304651-31.735908 33.100893 33.100893 0 0 1 8.81553-23.204749l29.631555-31.565284a31.224038 31.224038 0 0 1 44.987639-0.853116 33.100893 33.100893 0 0 1 1.649357 45.158262l46.182002 45.499509a460.170656 460.170656 0 0 1 145.37093-84.230965 180.291803 180.291803 0 0 0-23.318498-29.68843 175.002485 175.002485 0 0 0-250.247298 0l-31.679033 32.589023a183.931764 183.931764 0 0 0-0.227498 255.877862z m912.549522 39.300201l-1.649357-6.881801A372.29973 372.29973 0 0 0 909.990175 246.664212l-3.696835-3.75371L966.864561 182.737402l7.791791 8.133037a21.27102 21.27102 0 0 0 30.48467 0.625618 21.726015 21.726015 0 0 0 6.540555-15.469833 22.749754 22.749754 0 0 0-5.687439-15.69733l-29.631555-31.565284a20.816025 20.816025 0 0 0-15.128587-6.711178 21.896639 21.896639 0 0 0-15.356084 6.085559 22.408508 22.408508 0 0 0-0.625618 31.167164l6.313057 6.711178-61.936206 60.855592-5.346193-5.06182a450.957006 450.957006 0 0 0-156.00644-88.667168l-5.971811-1.876854 3.298715-5.687439a184.955503 184.955503 0 0 1 160.328893-92.136505 183.818015 183.818015 0 0 1 132.119199 55.850647l31.90653 32.589023a194.453525 194.453525 0 0 1 0 270.494579 179.779934 179.779934 0 0 1-37.025225 29.290309z m-86.505941-181.998035a384.527723 384.527723 0 0 1 93.046496 165.675086 178.983692 178.983692 0 0 0 29.005936-24.057865 183.931764 183.931764 0 0 0 0-255.934737l-31.849656-32.247777a174.718114 174.718114 0 0 0-250.247298 0 165.959458 165.959458 0 0 0-23.091 29.290309 457.895681 457.895681 0 0 1 151.513364 87.188433l47.831358-47.035117a32.930269 32.930269 0 0 1 1.649357-45.158262 30.769043 30.769043 0 0 1 22.749755-8.986153 31.963405 31.963405 0 0 1 22.294759 9.839269l29.631555 31.565284a33.32839 33.32839 0 0 1-0.853116 45.670132 31.622159 31.622159 0 0 1-44.987639-0.853116L966.864561 197.75224z" fill="#ed4c89" p-id="11457"></path><path d="M369.626634 708.313602a52.608807 37.650843 90 1 0 75.301687 0 52.608807 37.650843 90 1 0-75.301687 0Z" fill="#ed4c89" p-id="11458"></path><path d="M407.277478 766.666722C383.390235 766.666722 363.882321 740.44763 363.882321 708.313602S383.390235 649.960482 407.277478 649.960482s43.395156 26.219092 43.395156 58.35312-19.45104 58.35312-43.395156 58.35312z m0-105.217614c-17.460436 0-31.963405 20.929774-31.963405 46.864494s14.218596 46.864494 31.963405 46.864494 31.906531-21.157272 31.90653-46.864494S424.737914 661.335359 407.277478 661.335359z" fill="#ed4c89" p-id="11459"></path><path d="M691.251286 711.100447a56.078145 39.982693 90 1 0 79.965387 0 56.078145 39.982693 90 1 0-79.965387 0Z" fill="#ed4c89" p-id="11460"></path><path d="M731.006482 772.86603c-25.252227 0-45.499509-27.584077-45.499509-61.822457S705.981752 649.221115 731.006482 649.221115s45.499509 27.584077 45.499509 61.822458-20.019784 61.822457-45.499509 61.822457zM731.006482 660.994113c-18.825422 0-34.124632 22.749754-34.124631 50.333832s15.412959 50.333832 34.124631 50.333831 34.124632-22.749754 34.124632-50.333831S750.286899 660.994113 731.006482 660.994113z" fill="#ed4c89" p-id="11461"></path><path d="M406.083115 628.689462a18.313552 18.313552 0 0 0 12.398617-34.465878 117.331858 117.331858 0 0 0-83.605348 8.019289 18.370427 18.370427 0 0 0 8.474284 34.693375 21.555392 21.555392 0 0 0 8.246786-1.81998 79.282894 79.282894 0 0 1 54.485661-6.426806z" fill="#ed4c89" p-id="11462"></path><path d="M343.578165 642.225566a23.944116 23.944116 0 0 1-21.612266-13.308606 24.285363 24.285363 0 0 1 10.578635-32.4184 124.327408 124.327408 0 0 1 87.984675-8.246786 24.740358 24.740358 0 0 1 13.536104 12.398616 24.285363 24.285363 0 0 1 0.909991 18.370426 24.740358 24.740358 0 0 1-12.398617 13.536104 24.285363 24.285363 0 0 1-18.370426 0.90999 74.903566 74.903566 0 0 0-49.878837 5.971811 22.749754 22.749754 0 0 1-10.749259 2.786845z m45.499509-47.546987a127.000504 127.000504 0 0 0-51.698817 12.171119 12.626114 12.626114 0 0 0-5.687438 17.062316 12.227993 12.227993 0 0 0 11.374877 6.8818 12.455491 12.455491 0 0 0 5.687438-1.364985 86.221569 86.221569 0 0 1 58.808116-6.426806 12.739862 12.739862 0 0 0 9.668645-0.454995 12.284867 12.284867 0 0 0 6.426806-7.109298 12.739862 12.739862 0 0 0-0.454995-9.668646 12.341742 12.341742 0 0 0-7.109299-6.426805 73.936702 73.936702 0 0 0-26.787835-4.493077z" fill="#ed4c89" p-id="11463"></path></svg>