<?xml version="1.0" standalone="no"?><!DOCTYPE svg PUBLIC "-//W3C//DTD SVG 1.1//EN" "http://www.w3.org/Graphics/SVG/1.1/DTD/svg11.dtd"><svg t="1622624359366" class="icon" viewBox="0 0 1024 1024" version="1.1" xmlns="http://www.w3.org/2000/svg" p-id="12518" xmlns:xlink="http://www.w3.org/1999/xlink" width="200" height="200"><defs><style type="text/css"></style></defs><path d="M976.4928125 369.629375c-0.7959375-3.710625-1.8571875-7.29-3.181875-10.074375l-74.499375-181.3434375c-16.8346875-49.3134375-64.6884375-81.1265625-122.086875-81.2596875H249.53c-56.86875 0-102.46875 30.3571875-118.3771875 77.150625L49.62875 363.00125c-0.5296875 1.59-1.194375 3.710625-1.7240625 5.96625-6.496875 20.0165625-9.81 40.6978125-9.81 61.509375 0.1321875 74.101875 41.4909375 141.9721875 108.0365625 177.234375 0.3965625 0.2671875 0.7959375 0.3965625 1.194375 0.661875 27.969375 14.5809375 60.58125 22.0040625 96.9009375 22.0040625 49.9753125-0.1321875 97.4334375-17.76375 134.416875-49.3134375 36.72 31.15125 84.0440625 48.6496875 134.019375 48.915 49.3134375-0.3965625 96.2390625-18.0271875 132.9590625-49.0471875 36.98625 31.4184375 84.7059375 49.0471875 134.9465625 49.0471875 36.98625-0.1321875 70.125-7.95375 98.35875-23.1984375 66.1490625-35.394375 107.2434375-103.265625 107.2434375-176.836875-0.1321875-20.1496875-3.4453125-41.0934375-9.676875-60.315zM850.295 555.876875c-19.486875 10.4728125-43.0828125 15.9065625-69.9909375 16.03875-43.479375 0-84.3084375-18.5578125-112.1446875-50.9034375-11.266875-13.1240625-34.066875-13.1240625-45.3346875 0-27.4396875 32.0803125-67.738125 50.6390625-110.2903125 50.9034375-43.2140625-0.2671875-83.7778125-18.823125-111.3496875-50.77125-5.5678125-6.496875-13.92-10.33875-22.666875-10.33875-8.7496875 0-17.1009375 3.84375-22.666875 10.33875-27.7059375 32.345625-68.5340625 51.0346875-111.7490625 51.1678125-25.9809375 0-48.915-5.0371875-68.1365625-14.848125-0.2671875-0.1321875-0.661875-0.3965625-0.928125-0.5296875-47.85375-24.920625-77.6803125-73.4390625-77.6803125-126.5953125 0-15.110625 2.5190625-30.223125 7.55625-46.9284375l81.5240625-188.7665625c8.484375-24.920625 27.969375-38.0446875 58.989375-38.0446875h533.1590625c31.9471875 0.1321875 55.27875 14.315625 64.6884375 41.4909375l75.4265625 184.6584375c0.2671875 1.0603125 0.5296875 2.11875 0.928125 3.181875 4.6396875 13.92 7.1578125 29.030625 7.025625 43.876875 0 52.6265625-29.16375 100.8778125-76.35375 126.0646875zM750.3434375 363.7971875H273.655625c-15.643125 0-28.3678125 13.3865625-28.3678125 29.9578125s12.7246875 29.9578125 28.3678125 29.9578125h476.6878125c15.643125 0 28.3678125-13.3865625 28.3678125-29.9578125s-12.594375-29.9578125-28.3678125-29.9578125z m117.185625 325.966875c-15.376875 0-29.56125 14.315625-29.56125 29.56125v148.0696875H186.164375V719.4584375c0-15.24375-14.315625-29.56125-29.56125-29.56125-15.376875 0-29.56125 14.315625-29.56125 29.56125v179.8846875c0 15.24375 12.4621875 27.7059375 27.7059375 27.7059375h714.6346875a27.609375 27.609375 0 0 0 27.7059375-27.7059375V719.4584375c0-15.24375-14.1834375-29.694375-29.56125-29.694375z" fill="#ed4c89" p-id="12519"></path></svg>