<?xml version="1.0" standalone="no"?><!DOCTYPE svg PUBLIC "-//W3C//DTD SVG 1.1//EN" "http://www.w3.org/Graphics/SVG/1.1/DTD/svg11.dtd"><svg t="1622284483596" class="icon" viewBox="0 0 1024 1024" version="1.1" xmlns="http://www.w3.org/2000/svg" p-id="25365" data-spm-anchor-id="a313x.7781069.0.i6" xmlns:xlink="http://www.w3.org/1999/xlink" width="200" height="200"><defs><style type="text/css"></style></defs><path d="M499.9 61.3h26.5c2.9 0.4 5.7 0.8 8.6 1.2 26.4 3.7 53.3 5.2 79.1 11.3C854 130.3 1002.2 367 949.8 609c-48.8 225.4-268 379.2-496 348.1-88.1-12-166.5-46.5-233.8-104.9-82.5-71.6-133.1-161.6-150.9-269.7-2.5-15-3.9-30.1-5.8-45.2v-51.6c1.6-13.6 2.7-27.3 4.8-40.8 17.5-110.8 68.6-203.2 153.6-276C289.3 111 367.7 76.5 456 65.5c14.6-1.8 29.3-2.8 43.9-4.2z m-81.6 447.2c2.4-2.1 4.2-3.8 6-5.3 67.3-55.5 134.7-110.9 202-166.5 21.2-17.5 19.3-45.1-3.6-60.1-19.5-12.8-46.3-11.7-64.7 2.7-9.4 7.4-18.6 15.2-27.9 22.8-71.7 59.1-143.4 118.1-215 177.3-20.1 16.6-20.6 41.4-0.7 57.5 81.7 66.6 163.4 133.2 245.4 199.4 18 14.5 38.7 15.9 59.4 6 28.3-13.5 31.8-44.5 7.5-64.3-56.8-46.3-113.7-92.5-170.6-138.7-12.5-10.1-24.9-20.3-37.8-30.8z" fill="#ed4c89" p-id="25366"></path></svg>