<?xml version="1.0" standalone="no"?><!DOCTYPE svg PUBLIC "-//W3C//DTD SVG 1.1//EN" "http://www.w3.org/Graphics/SVG/1.1/DTD/svg11.dtd"><svg t="1622712560509" class="icon" viewBox="0 0 1024 1024" version="1.1" xmlns="http://www.w3.org/2000/svg" p-id="15973" xmlns:xlink="http://www.w3.org/1999/xlink" width="200" height="200"><defs><style type="text/css"></style></defs><path d="M771.868 296.619c14.223-13.54 36.637-13.085 50.29 1.024 13.54 14.222 13.085 36.636-1.024 50.29l-420.409 403-197.86-189.553c-14.221-13.54-14.677-36.068-1.023-50.29 13.54-14.222 36.067-14.678 50.29-1.024l148.593 142.336 371.143-355.783z" fill="#ed4c89" p-id="15974"></path><path d="M512 1021.724C230.514 1021.724 2.276 793.486 2.276 512S230.514 2.276 512 2.276 1021.724 230.514 1021.724 512 793.486 1021.724 512 1021.724z m0-71.11c242.233 0 438.613-196.381 438.613-438.614S754.233 73.387 512 73.387 73.387 269.767 73.387 512 269.767 950.613 512 950.613z" fill="#ed4c89" p-id="15975"></path></svg>